<svg width="60" height="64" viewBox="0 0 60 64" fill="none" xmlns="http://www.w3.org/2000/svg">
<path d="M54.8149 6.84641C53.023 4.70614 50.3601 3.375 47.4235 3.375C44.6362 3.375 42.0977 4.57564 40.281 6.5332C39.2357 7.65554 38.4393 9.01278 37.9665 10.5266C37.643 11.5707 37.4688 12.6669 37.4688 13.8153C37.4688 15.7729 37.9914 17.626 38.9122 19.1921C39.4099 20.0795 40.057 20.8887 40.8036 21.5673C42.5457 23.2377 44.8601 24.2557 47.4235 24.2557C48.5185 24.2557 49.5638 24.073 50.5343 23.7075C52.8239 22.9506 54.7402 21.3063 55.9348 19.1921C56.4574 18.3047 56.8556 17.2867 57.0796 16.2427C57.2787 15.4597 57.3782 14.6506 57.3782 13.8153C57.3782 11.153 56.4076 8.69957 54.8149 6.84641ZM51.1316 15.7207H49.29V17.7566C49.29 18.8267 48.4438 19.7141 47.4235 19.7141C46.4031 19.7141 45.557 18.8267 45.557 17.7566V15.7207H43.7153C42.695 15.7207 41.8488 14.8333 41.8488 13.7631C41.8488 12.693 42.695 11.8056 43.7153 11.8056H45.557V9.95241C45.557 8.88227 46.4031 7.99485 47.4235 7.99485C48.4438 7.99485 49.29 8.88227 49.29 9.95241V11.8056H51.1316C52.152 11.8056 52.9981 12.693 52.9981 13.7631C52.9981 14.8333 52.1769 15.7207 51.1316 15.7207Z" fill="black"/>
<path d="M54.8869 32.0871C54.8869 28.6679 54.2648 25.3792 53.0951 22.3776C52.3236 22.9519 51.4526 23.3956 50.5317 23.7088C50.258 23.8132 49.9842 23.8915 49.6856 23.9698C50.6313 26.4755 51.1539 29.2161 51.1539 32.0871C51.1539 38.1425 48.8146 43.6498 45.0318 47.6693C44.31 46.7036 43.3892 45.8162 42.2942 45.0593C35.5499 40.3089 24.5001 40.3089 17.706 45.0593C16.611 45.8162 15.7151 46.7036 14.9685 47.6693C11.1857 43.6498 8.84631 38.1425 8.84631 32.0871C8.84631 19.8459 18.3282 9.90145 30.0001 9.90145C32.7128 9.90145 35.3259 10.4496 37.715 11.4414C37.7897 11.1282 37.8643 10.8411 37.9639 10.5279C38.2625 9.56214 38.6856 8.67471 39.258 7.86559C36.396 6.63885 33.2603 5.98633 30.0001 5.98633C16.2875 5.98633 5.11328 17.7056 5.11328 32.0871C5.11328 39.6564 8.22413 46.4687 13.1517 51.2452C13.1517 51.2713 13.1517 51.2713 13.1268 51.2974C13.3757 51.5584 13.6744 51.7672 13.9232 52.0021C14.0725 52.1326 14.197 52.2631 14.3463 52.3675C14.7943 52.759 15.292 53.1244 15.7648 53.4898C15.9391 53.6203 16.0884 53.7247 16.2626 53.8552C16.7354 54.1945 17.2332 54.5078 17.7558 54.7949C17.93 54.8993 18.1291 55.0298 18.3033 55.1342C18.801 55.4213 19.3237 55.6823 19.8712 55.9172C20.0703 56.0216 20.2694 56.126 20.4685 56.2043C21.016 56.4392 21.5635 56.648 22.111 56.8307C22.3101 56.909 22.5092 56.9873 22.7083 57.0395C23.3056 57.2222 23.9028 57.3788 24.5001 57.5355C24.6743 57.5877 24.8485 57.6399 25.0476 57.666C25.7445 57.8226 26.4413 57.927 27.163 58.0053C27.2626 58.0053 27.3621 58.0314 27.4617 58.0575C28.3078 58.1358 29.154 58.188 30.0001 58.188C30.8463 58.188 31.6924 58.1358 32.5137 58.0575C32.6132 58.0575 32.7128 58.0314 32.8123 58.0053C33.534 57.927 34.2309 57.8226 34.9277 57.666C35.1019 57.6399 35.2761 57.5616 35.4752 57.5355C36.0725 57.3788 36.6947 57.2483 37.2671 57.0395C37.4662 56.9612 37.6653 56.8829 37.8643 56.8307C38.4119 56.6219 38.9843 56.4392 39.5069 56.2043C39.706 56.126 39.9051 56.0216 40.1042 55.9172C40.6268 55.6823 41.1494 55.4213 41.672 55.1342C41.8711 55.0298 42.0453 54.8993 42.2195 54.7949C42.7173 54.4817 43.215 54.1945 43.7128 53.8552C43.887 53.7508 44.0363 53.6203 44.2105 53.4898C44.7082 53.1244 45.1811 52.759 45.629 52.3675C45.7784 52.237 45.9028 52.1065 46.0521 52.0021C46.3259 51.7672 46.5996 51.5323 46.8485 51.2974C46.8485 51.2713 46.8485 51.2713 46.8236 51.2452C51.7761 46.4687 54.8869 39.6564 54.8869 32.0871Z" fill="black"/>
<path d="M30.0005 18.8535C24.849 18.8535 20.668 23.2385 20.668 28.6413C20.668 33.9398 24.625 38.2464 29.8761 38.403C29.9508 38.403 30.0503 38.403 30.1001 38.403C30.1499 38.403 30.2245 38.403 30.2743 38.403C30.2992 38.403 30.3241 38.403 30.3241 38.403C35.3512 38.2203 39.3082 33.9398 39.3331 28.6413C39.3331 23.2385 35.1521 18.8535 30.0005 18.8535Z" fill="black"/>
</svg>
